<?xml version="1.0" encoding="UTF-8"?>
<svg width="358px" height="132px" viewBox="0 0 358 132" version="1.1" xmlns="http://www.w3.org/2000/svg" xmlns:xlink="http://www.w3.org/1999/xlink">
    <!-- Generator: Sketch 55.2 (78181) - https://sketchapp.com -->
    <title>keyboard</title>
    <desc>Created with Sketch.</desc>
    <g id="Page-1" stroke="none" stroke-width="1" fill="none" fill-rule="evenodd">
        <g id="Tablet" transform="translate(-510.000000, -407.000000)">
            <g id="keyboard" transform="translate(510.000000, 407.000000)">
                <rect id="Rectangle" stroke="#000000" stroke-width="6.5" fill="#FFFFFF" x="3.25" y="3.25" width="351.5" height="125.5"></rect>
                <rect id="Rectangle" stroke="#D8D8D8" stroke-width="4" x="70" y="94" width="186" height="22"></rect>
                <rect id="Rectangle-Copy" stroke="#D8D8D8" stroke-width="4" x="268" y="94" width="48" height="22"></rect>
                <rect id="Rectangle-Copy-2" stroke="#D8D8D8" stroke-width="4" x="23" y="94" width="35" height="22"></rect>
                <rect id="Rectangle-Copy-3" stroke="#D8D8D8" stroke-width="4" x="23" y="60" width="22" height="22"></rect>
                <rect id="Rectangle-Copy-4" stroke="#D8D8D8" stroke-width="4" x="57" y="60" width="22" height="22"></rect>
                <rect id="Rectangle-Copy-5" stroke="#D8D8D8" stroke-width="4" x="91" y="60" width="22" height="22"></rect>
                <rect id="Rectangle-Copy-8" stroke="#D8D8D8" stroke-width="4" x="125" y="60" width="22" height="22"></rect>
                <rect id="Rectangle-Copy-7" stroke="#D8D8D8" stroke-width="4" x="159" y="60" width="22" height="22"></rect>
                <rect id="Rectangle-Copy-6" stroke="#D8D8D8" stroke-width="4" x="193" y="60" width="22" height="22"></rect>
                <rect id="Rectangle-Copy-11" stroke="#D8D8D8" stroke-width="4" x="227" y="60" width="22" height="22"></rect>
                <rect id="Rectangle-Copy-10" stroke="#D8D8D8" stroke-width="4" x="261" y="60" width="22" height="22"></rect>
                <rect id="Rectangle-Copy-9" stroke="#D8D8D8" stroke-width="4" x="295" y="60" width="22" height="22"></rect>
                <rect id="Rectangle-Copy-20" stroke="#D8D8D8" stroke-width="4" x="23" y="26" width="22" height="22"></rect>
                <rect id="Rectangle-Copy-19" stroke="#D8D8D8" stroke-width="4" x="57" y="26" width="22" height="22"></rect>
                <rect id="Rectangle-Copy-18" stroke="#D8D8D8" stroke-width="4" x="91" y="26" width="22" height="22"></rect>
                <rect id="Rectangle-Copy-17" stroke="#D8D8D8" stroke-width="4" x="125" y="26" width="22" height="22"></rect>
                <rect id="Rectangle-Copy-16" stroke="#D8D8D8" stroke-width="4" x="159" y="26" width="22" height="22"></rect>
                <rect id="Rectangle-Copy-15" stroke="#D8D8D8" stroke-width="4" x="193" y="26" width="22" height="22"></rect>
                <rect id="Rectangle-Copy-14" stroke="#D8D8D8" stroke-width="4" x="227" y="26" width="22" height="22"></rect>
                <rect id="Rectangle-Copy-13" stroke="#D8D8D8" stroke-width="4" x="261" y="26" width="22" height="22"></rect>
                <rect id="Rectangle-Copy-12" stroke="#D8D8D8" stroke-width="4" x="295" y="26" width="22" height="22"></rect>
            </g>
        </g>
    </g>
</svg>